# xmcd
#
# Track frame offsets: 
#        150
#        10678
#        26405
#        40368
#        64052
#        86118
#        96945
#        113431
#        129997
#        157295
#        181186
#        198952
#        219508
#        231958
#        247996
#        261453
#        277614
#        293571
#        314234
#        328915
#
# Disc length: 4762 seconds
#
# Revision: 0
# Processed by: cddbd v1.5.2PL0 Copyright (c) Steve Scherf et al.
# Submitted via: ExactAudioCopy v1.3
#
DISCID=1d129814
DTITLE=Various Artist - Akella Presents - vol.196 - Americana  CD1
DYEAR=2019
DGENRE=Blues
TTITLE0=J.J. Cale - Lights Down Low
TTITLE1=Bad Temper Joe - Waiting In Vain
TTITLE2=Little Hurricane - Love Luck
TTITLE3=Billy Hector - Cruise On Down
TTITLE4=Dave P.Moore - Hank's Basement
TTITLE5=Kerry Kearney - Long Tall Mama
TTITLE6=Hank Shizzoe - I Been Treated Wrong
TTITLE7=Marc Amacher - All For You
TTITLE8=Dick LeMasters - Angels
TTITLE9=Steve Freund - Easy Rider
TTITLE10=Hollis Brown - She Don't Love Me Now
TTITLE11=Charlie Karp - The Blame
TTITLE12=Dave Kelly - Big River
TTITLE13=Dry Riverbed Trio - Chains
TTITLE14=Brent Moyer - Just to See the Other Side
TTITLE15=Woods and Taylor - Deep River Blues
TTITLE16=Eric Street Band - Man with No Name
TTITLE17=Johnny Hoy - Made for One Another
TTITLE18=Big Daddy Wilson - Ain't Got No Money
TTITLE19=Vidar Busk - Drive On
EXTD=
EXTT0=
EXTT1=
EXTT2=
EXTT3=
EXTT4=
EXTT5=
EXTT6=
EXTT7=
EXTT8=
EXTT9=
EXTT10=
EXTT11=
EXTT12=
EXTT13=
EXTT14=
EXTT15=
EXTT16=
EXTT17=
EXTT18=
EXTT19=
PLAYORDER=
